<?xml version="1.0" encoding="UTF-8" standalone="no"?>
<svg
   xmlns:dc="http://purl.org/dc/elements/1.1/"
   xmlns:cc="http://creativecommons.org/ns#"
   xmlns:rdf="http://www.w3.org/1999/02/22-rdf-syntax-ns#"
   xmlns:svg="http://www.w3.org/2000/svg"
   xmlns="http://www.w3.org/2000/svg"
   xmlns:sodipodi="http://sodipodi.sourceforge.net/DTD/sodipodi-0.dtd"
   xmlns:inkscape="http://www.inkscape.org/namespaces/inkscape"
   id="Calque_1"
   data-name="Calque 1"
   viewBox="0 0 310.00778 72.129883"
   version="1.1"
   sodipodi:docname="baseline-logo-blanc-trim.svg"
   width="310.00778"
   height="72.129883"
   inkscape:version="0.92.4 5da689c313, 2019-01-14">
  <metadata
     id="metadata31">
    <rdf:RDF>
      <cc:Work
         rdf:about="">
        <dc:format>image/svg+xml</dc:format>
        <dc:type
           rdf:resource="http://purl.org/dc/dcmitype/StillImage" />
        <dc:title>Baseline-logo</dc:title>
      </cc:Work>
    </rdf:RDF>
  </metadata>
  <sodipodi:namedview
     pagecolor="#ffffff"
     bordercolor="#666666"
     borderopacity="1"
     objecttolerance="10"
     gridtolerance="10"
     guidetolerance="10"
     inkscape:pageopacity="0"
     inkscape:pageshadow="2"
     inkscape:window-width="2560"
     inkscape:window-height="1346"
     id="namedview29"
     showgrid="false"
     fit-margin-top="0"
     fit-margin-left="0"
     fit-margin-right="0"
     fit-margin-bottom="0"
     inkscape:zoom="1.888"
     inkscape:cx="159.87158"
     inkscape:cy="19.146973"
     inkscape:window-x="0"
     inkscape:window-y="46"
     inkscape:window-maximized="1"
     inkscape:current-layer="Calque_1" />
  <defs
     id="defs4">
    <style
       id="style2">.cls-1{fill:#f1f2f2;}</style>
  </defs>
  <title
     id="title6">Baseline-logo</title>
  <path
     class="cls-1"
     d="m 43.9,38.639879 c 0,7.23 -4.31,12.54 -16.31,12.54 H 0 V 4.7598793 h 26.39 c 11.87,0 16,5.6999997 16,12.5999997 0,4.38 -1.72,8.16 -6.43,10.34 6.04,2.26 7.94,6.3 7.94,10.94 z m -31.57,-23.34 v 7.63 H 25.4 c 3.31,0 4.71,-1.39 4.71,-3.85 0,-2.46 -1.4,-3.78 -4.71,-3.78 z m 19.23,21.16 c 0,-2.72 -1.45,-4.18 -5.5,-4.18 l -13.73,0.07 v 8.28 h 13.73 c 4.05,0 5.5,-1.45 5.5,-4.17 z"
     id="path8"
     inkscape:connector-curvature="0"
     style="fill:#f1f2f2" />
  <path
     class="cls-1"
     d="m 87.66,16.699879 v 34.48 H 75.93 l -0.14,-3.85 c -2.78,3.58 -6.63,4.84 -10.74,4.84 -10.28,0 -16.78,-8.15 -16.78,-18.23 0,-10.08 6.5,-18.17 16.78,-18.17 4.91,0 9.15,1.79 12.87,7.89 l -2.19,-3.78 0.2,-3.18 z m -11.8,17.24 c 0,-4.58 -3.12,-7.83 -8,-7.83 -4.88,0 -7.76,3.25 -7.76,7.83 0,4.58 3,7.82 7.76,7.82 4.76,0 8,-3.25 8,-7.82 z"
     id="path10"
     inkscape:connector-curvature="0"
     style="fill:#f1f2f2" />
  <path
     class="cls-1"
     d="m 92.9,40.439879 h 10.88 c 0.39,2.32 2.71,2.91 6.36,2.91 4.71,0 5.64,-1 5.64,-2.45 0,-1.45 -1.13,-2.26 -3.32,-2.45 l -7.89,-0.73 c -7.23,-0.67 -11.34,-3.72 -11.34,-10.48 0,-7.56 5.31,-11.54 17.18,-11.54 7.76,0 15.51,1.73 16.11,11.47 h -10.81 c -0.46,-2.12 -2.25,-2.85 -5.7,-2.85 -3.12,0 -5.11,0.6 -5.11,2.52 0,1.59 1.2,2.26 3.32,2.45 l 7.82,0.73 c 7.3,0.6 11.54,3.05 11.54,10.28 0,7.56 -5.17,11.87 -17.77,11.87 -9.22,0 -16.38,-2.25 -16.91,-11.73 z"
     id="path12"
     inkscape:connector-curvature="0"
     style="fill:#f1f2f2" />
  <path
     class="cls-1"
     d="m 151.78,43.089879 c 3.05,0 5.31,-1 6,-3 h 11.34 c -0.67,5.57 -6.77,12.07 -18,12.07 -12.4,0 -19.16,-8 -19.16,-18.23 0,-10.23 7,-18.24 19.29,-18.24 12.29,0 19.83,8.1 18.75,21.7 h -26 c 0.89,3.64 3.21,5.7 7.78,5.7 z m -7.78,-12.8 h 14.26 c -1,-4.31 -3.19,-5.9 -7,-5.9 -4.18,0 -6.51,1.92 -7.26,5.9 z"
     id="path14"
     inkscape:connector-curvature="0"
     style="fill:#f1f2f2" />
  <path
     class="cls-1"
     d="m 175.32,4.0998793 h 12 V 51.179879 h -12 z"
     id="path16"
     inkscape:connector-curvature="0"
     style="fill:#f1f2f2" />
  <path
     class="cls-1"
     d="m 193.89,6.6798793 a 6.34,6.34 0 1 1 6.37,5.9999997 c -3.98,0.04 -6.37,-2.6799997 -6.37,-5.9999997 z m 0.4,9.9999997 h 11.93 v 34.48 h -11.93 z"
     id="path18"
     inkscape:connector-curvature="0"
     style="fill:#f1f2f2" />
  <path
     class="cls-1"
     d="m 251.05,31.549879 v 19.63 h -11.94 v -17.44 c 0,-4.38 -1.45,-7.63 -6.69,-7.63 -5.24,0 -7.3,3.25 -7.3,7.56 v 17.51 h -12 v -34.48 h 11.54 l 0.46,4.31 -1.06,2.45 c 2.32,-4.31 5.64,-7.76 12.93,-7.76 9.75,0 14.06,6.1 14.06,15.85 z"
     id="path20"
     inkscape:connector-curvature="0"
     style="fill:#f1f2f2" />
  <path
     class="cls-1"
     d="m 276.18,43.089879 c 3.05,0 5.31,-1 6,-3 h 11.33 c -0.66,5.57 -6.76,12.07 -18,12.07 -12.4,0 -19.17,-8 -19.17,-18.23 0,-10.23 7,-18.24 19.3,-18.24 12.3,0 19.83,8.09 18.7,21.68 h -25.92 c 0.86,3.66 3.19,5.72 7.76,5.72 z m -7.82,-12.8 h 14.25 c -1,-4.31 -3.18,-5.9 -7,-5.9 -4.14,0 -6.46,1.92 -7.25,5.9 z"
     id="path22"
     inkscape:connector-curvature="0"
     style="fill:#f1f2f2" />
  <path
     class="cls-1"
     d="m 297.07,45.209879 a 6.47,6.47 0 1 1 6.5,6.3 6.14,6.14 0 0 1 -6.5,-6.3 z"
     id="path24"
     inkscape:connector-curvature="0"
     style="fill:#f1f2f2" />
  <path
     class="cls-1"
     d="m 174.94,61.649879 h 118.31 v 10.48 H 174.94 Z"
     id="path26"
     inkscape:connector-curvature="0"
     style="fill:#f1f2f2" />
</svg>
